PathFileType	4	(X/Y/Z)	 s08c0001.trc
DataRate	CameraRate	NumFrames	NumMarkers	Units	OrigDataRate	OrigDataStartFrame	OrigNumFrames
200	200	4	49	mm	200	1	2000
Frame#	Time	racr			lacr			c7			jug			rlel			rdr			llel			ldr			s2			lic			ric			lasi			rasi			rpsi			lpsi			rgt			lgt			rth1			rth2			rth3			rth4			rlfc			rmfc			rsh1			rsh2			rsh3			rsh4			rlmal			rmmal			rcal			rtoe			rmt5			rmt1			lth1			lth2			lth4			lth3			llfc			lmfc			llmal			lmmal			lcal			lmt1			lmt5			lsh1			lsh2			lsh3			lsh4			ltoe			
		X1	Y1	Z1	X2	Y2	Z2	X3	Y3	Z3	X4	Y4	Z4	X5	Y5	Z5	X6	Y6	Z6	X7	Y7	Z7	X8	Y8	Z8	X9	Y9	Z9	X10	Y10	Z10	X11	Y11	Z11	X12	Y12	Z12	X13	Y13	Z13	X14	Y14	Z14	X15	Y15	Z15	X16	Y16	Z16	X17	Y17	Z17	X18	Y18	Z18	X19	Y19	Z19	X20	Y20	Z20	X21	Y21	Z21	X22	Y22	Z22	X23	Y23	Z23	X24	Y24	Z24	X25	Y25	Z25	X26	Y26	Z26	X27	Y27	Z27	X28	Y28	Z28	X29	Y29	Z29	X30	Y30	Z30	X31	Y31	Z31	X32	Y32	Z32	X33	Y33	Z33	X34	Y34	Z34	X35	Y35	Z35	X36	Y36	Z36	X37	Y37	Z37	X38	Y38	Z38	X39	Y39	Z39	X40	Y40	Z40	X41	Y41	Z41	X42	Y42	Z42	X43	Y43	Z43	X44	Y44	Z44	X45	Y45	Z45	X46	Y46	Z46	X47	Y47	Z47	X48	Y48	Z48	X49	Y49	Z49	
1	0.0050	410.338703	1527.099756	597.378097	396.409324	1545.653406	202.008699	350.549427	1583.418093	400.262838	481.536676	1487.823412	396.225699	370.182533	1233.420879	681.838476	444.634468	956.454943	790.110674	373.762181	1246.987556	97.770821	430.951613	974.563752	-6.745165	318.636514	1027.664946	402.188804	463.220683	1095.076077	236.903936	469.281470	1099.852898	553.366007	513.430918	1037.483683	267.506259	524.547037	1034.370025	517.429104	339.993696	1067.135898	449.608884	338.501556	1075.313974	350.606642	414.539069	954.929720	574.941347	418.545952	943.959127	209.523954	428.297063	804.152849	591.471394	450.464232	718.781505	587.376434	487.942780	720.017911	579.630466	428.469187	635.085627	577.373083	433.508239	512.254495	558.121689	417.823034	499.791441	454.825100	394.909595	387.185827	593.161795	419.251749	301.114188	575.308593	396.746102	217.966132	569.078601	445.027429	306.253704	545.054180	392.078049	97.979757	555.628852	407.020731	122.123194	469.861739	321.310582	65.288720	507.897247	612.265821	78.980066	510.499908	535.580358	47.626628	577.263353	539.123460	47.377706	464.193682	435.953943	814.696204	187.996903	457.284415	729.308418	190.307979	492.864054	731.587738	200.591889	430.320738	645.045110	195.103305	426.592572	519.966433	216.779377	431.443953	496.668060	314.036795	382.656733	106.148427	221.195105	413.390674	127.286945	301.307525	325.014057	73.948294	264.424279	542.255186	46.994400	295.838066	529.392165	42.369187	181.483143	406.031738	393.497420	189.848084	420.549056	310.234634	207.414623	392.889981	226.053173	207.272838	441.851928	313.200117	239.682976	610.486867	81.763711	243.139456	
2	0.0100	410.405028	1527.124360	597.319676	396.509652	1545.619669	201.952681	350.662501	1583.410618	400.195336	481.611947	1487.813739	396.185934	370.232501	1233.436837	681.790664	444.631271	956.447455	790.097693	373.887536	1246.968837	97.746829	431.057903	974.518700	-6.730853	318.685839	1027.640616	402.158177	463.285240	1095.067820	236.879288	469.361892	1099.856319	553.317380	513.481029	1037.472848	267.444942	524.640202	1034.354905	517.367070	340.074777	1067.153219	449.611920	338.580391	1075.312160	350.606567	414.611518	954.942470	574.915067	418.580704	943.960182	209.506321	428.391286	804.162148	591.435243	450.522361	718.787598	587.343418	487.998207	720.011120	579.598985	428.550649	635.103802	577.374427	433.567847	512.254051	558.092260	417.890728	499.791738	454.821943	394.938635	387.188324	593.151003	419.287885	301.111294	575.287370	396.752328	217.956760	569.068348	445.047961	306.238589	545.013717	392.055924	97.973441	555.629680	407.033081	122.112758	469.872463	321.310216	65.289622	507.896665	612.282636	78.989181	510.495778	535.616302	47.634602	577.260005	539.121168	47.380112	464.192809	435.984539	814.673353	187.968614	457.312574	729.300879	190.297803	492.905646	731.568630	200.544537	430.327288	645.030997	195.080831	426.572430	519.964202	216.737031	431.438992	496.659939	314.021616	382.657502	106.131837	221.192134	413.396345	127.278212	301.300877	325.009477	73.946696	264.412410	542.251027	46.984536	295.830558	529.431294	42.382443	181.494751	406.011471	393.500380	189.822556	420.521897	310.231016	207.378661	392.859027	226.035014	207.261397	441.845852	313.200443	239.673868	610.476597	81.772543	243.124700	
3	0.0150	410.502112	1527.157949	597.278639	396.565545	1545.586743	201.920453	350.751933	1583.412525	400.145906	481.697374	1487.819535	396.150222	370.283997	1233.455384	681.743430	444.608382	956.459545	790.066794	373.984484	1246.963244	97.733926	431.177892	974.497812	-6.722145	318.767836	1027.636547	402.150544	463.346818	1095.059997	236.840256	469.442507	1099.853624	553.261685	513.535370	1037.468579	267.434160	524.722874	1034.348274	517.330041	340.117172	1067.183340	449.682690	338.654714	1075.311153	350.587727	414.709370	954.941832	574.888747	418.622036	943.943482	209.484424	428.471058	804.167337	591.403350	450.585318	718.768952	587.326494	488.084148	720.019351	579.560937	428.640687	635.127915	577.329115	433.619261	512.258025	558.088752	417.933126	499.780163	454.791384	394.979132	387.192044	593.133999	419.316550	301.112936	575.277840	396.767702	217.954167	569.066607	445.086748	306.236703	545.013433	392.059212	97.981665	555.635245	407.042631	122.116863	469.862672	321.329326	65.267974	507.903083	612.282867	78.984279	510.513154	535.592517	47.640744	577.255214	539.120819	47.399311	464.181289	436.011241	814.680974	187.963584	457.315231	729.290415	190.274740	492.904758	731.591545	200.527713	430.331443	645.027411	195.071855	426.534665	519.962944	216.709083	431.449381	496.661705	313.998840	382.632405	106.126929	221.201796	413.390438	127.285666	301.301478	325.018319	73.938060	264.421682	542.249094	46.985770	295.831801	529.442126	42.365310	181.480679	405.974401	393.509443	189.807742	420.490803	310.229109	207.368038	392.852871	226.012310	207.227922	441.828883	313.201007	239.635618	610.482497	81.759242	243.126492	
4	0.0200	410.407396	1527.350235	597.167902	396.649970	1545.575121	201.858940	350.948558	1583.755047	399.819675	480.796526	1488.548877	394.884507	371.230127	1233.507138	681.898840	444.598467	956.479954	790.058294	374.099975	1246.959539	97.718870	431.104896	974.910812	-6.858586	318.835192	1027.645866	402.152288	457.891337	1095.455790	235.343576	469.710626	1099.760774	553.155844	513.589595	1037.457776	267.394781	524.782857	1034.337124	517.298444	340.200437	1067.191552	449.671271	338.733551	1075.309341	350.587651	414.789126	954.950282	574.863515	417.733356	944.528496	208.133374	428.536390	804.163174	591.385487	450.245452	719.009369	587.645411	488.176355	719.902891	579.498606	428.689090	635.116784	577.312498	433.661576	512.261486	558.069274	417.970548	499.792008	454.776500	394.997749	387.186984	593.124883	419.325106	301.117125	575.263898	396.779022	217.971925	569.062429	440.082727	304.717502	542.428308	392.616226	97.534199	555.480927	407.473632	121.990682	469.958263	321.325187	65.282010	507.905512	612.304306	78.972449	510.505843	535.606096	47.617149	577.257449	534.626276	47.863495	462.409582	436.035552	814.683308	187.936644	456.339099	730.223211	191.838882	493.045168	731.113185	200.395759	430.338322	645.016227	195.056452	423.846513	519.722115	215.047666	431.420982	496.653617	313.982362	382.609920	106.142352	221.198612	409.748190	127.236488	299.557729	324.999996	73.954152	264.426417	542.244973	46.992011	295.831141	529.442126	42.365310	181.480679	405.938816	393.523493	189.794920	420.459191	310.212634	207.340065	393.033339	225.681087	207.066801	441.791287	313.202336	239.618553	610.485168	81.740892	243.128436	
